<svg width="33" height="33" viewBox="0 0 33 33" fill="none" xmlns="http://www.w3.org/2000/svg">
<path d="M14 3.5H8C7.172 3.5 6.5 4.172 6.5 5V28C6.5 28.828 7.172 29.5 8 29.5H25C25.828 29.5 26.5 28.828 26.5 28V16M14 3.5H14.5C17.6826 3.5 20.7348 4.76428 22.9853 7.01472C25.2357 9.26516 26.5 12.3174 26.5 15.5V16M14 3.5C15.1935 3.5 16.3381 3.97411 17.182 4.81802C18.0259 5.66193 18.5 6.80653 18.5 8V10C18.5 10.828 19.172 11.5 20 11.5H22C23.1935 11.5 24.3381 11.9741 25.182 12.818C26.0259 13.6619 26.5 14.8065 26.5 16M12.5 20.5L15.5 23.5L20.5 16.5" stroke="#F5D877" stroke-width="2" stroke-linecap="round" stroke-linejoin="round"/>
</svg>
