<svg width="33" height="32" viewBox="0 0 33 32" fill="none" xmlns="http://www.w3.org/2000/svg">
<g clip-path="url(#clip0_1_282)">
<path d="M12.5 25.3333C6.76667 27.2 6.76667 22 4.5 21.3333M20.5 28V23.3333C20.5 22 20.6333 21.4667 19.8333 20.6667C23.5667 20.2667 27.1667 18.8 27.1667 12.6667C27.165 11.0733 26.5434 9.54307 25.4333 8.4C25.954 7.01595 25.906 5.48217 25.3 4.13333C25.3 4.13333 23.8333 3.73333 20.6333 5.86666C17.923 5.16078 15.077 5.16078 12.3667 5.86666C9.16667 3.73333 7.7 4.13333 7.7 4.13333C7.09397 5.48217 7.04604 7.01595 7.56667 8.4C6.4566 9.54307 5.83496 11.0733 5.83333 12.6667C5.83333 18.8 9.43333 20.2667 13.1667 20.6667C12.3667 21.4667 12.3667 22.2667 12.5 23.3333V28" stroke="#F5D877" stroke-width="2" stroke-linecap="round" stroke-linejoin="round"/>
</g>
<defs>
<clipPath id="clip0_1_282">
<rect width="32" height="32" fill="white" transform="translate(0.5)"/>
</clipPath>
</defs>
</svg>
