<svg width="24" height="24" viewBox="0 0 24 24" fill="none" xmlns="http://www.w3.org/2000/svg">
<path d="M9.02386 17.1072V18.0625C9.0239 18.4363 8.95028 18.8065 8.80721 19.1519C8.66413 19.4973 8.4544 19.8112 8.19 20.0755L7.6009 20.6646H16.1386L15.5495 20.0755C15.2851 19.8112 15.0754 19.4973 14.9323 19.1519C14.7893 18.8065 14.7156 18.4363 14.7157 18.0625V17.1072M20.4075 5.72355V14.9728C20.4075 15.5388 20.1826 16.0817 19.7823 16.482C19.3821 16.8823 18.8392 17.1072 18.2731 17.1072H5.46647C4.90038 17.1072 4.35748 16.8823 3.95719 16.482C3.55691 16.0817 3.33203 15.5388 3.33203 14.9728V5.72355M20.4075 5.72355C20.4075 5.15746 20.1826 4.61456 19.7823 4.21427C19.3821 3.81399 18.8392 3.58911 18.2731 3.58911H5.46647C4.90038 3.58911 4.35748 3.81399 3.95719 4.21427C3.55691 4.61456 3.33203 5.15746 3.33203 5.72355M20.4075 5.72355V12.1268C20.4075 12.6929 20.1826 13.2358 19.7823 13.6361C19.3821 14.0364 18.8392 14.2613 18.2731 14.2613H5.46647C4.90038 14.2613 4.35748 14.0364 3.95719 13.6361C3.55691 13.2358 3.33203 12.6929 3.33203 12.1268V5.72355" stroke="#F5D877" stroke-width="1.89727" stroke-linecap="round" stroke-linejoin="round"/>
</svg>
