<svg width="32" height="32" viewBox="0 0 32 32" fill="none" xmlns="http://www.w3.org/2000/svg">
<g clip-path="url(#clip0_1_288)">
<path d="M5.33325 7.99998C5.33325 7.29274 5.6142 6.61446 6.1143 6.11436C6.6144 5.61426 7.29267 5.33331 7.99992 5.33331H23.9999C24.7072 5.33331 25.3854 5.61426 25.8855 6.11436C26.3856 6.61446 26.6666 7.29274 26.6666 7.99998V24C26.6666 24.7072 26.3856 25.3855 25.8855 25.8856C25.3854 26.3857 24.7072 26.6666 23.9999 26.6666H7.99992C7.29267 26.6666 6.6144 26.3857 6.1143 25.8856C5.6142 25.3855 5.33325 24.7072 5.33325 24V7.99998Z" stroke="#F5D877" stroke-width="2" stroke-linecap="round" stroke-linejoin="round"/>
<path d="M10.6667 14.6667V21.3334" stroke="#F5D877" stroke-width="2" stroke-linecap="round" stroke-linejoin="round"/>
<path d="M10.6667 10.6667V10.68" stroke="#F5D877" stroke-width="2" stroke-linecap="round" stroke-linejoin="round"/>
<path d="M16 21.3334V14.6667" stroke="#F5D877" stroke-width="2" stroke-linecap="round" stroke-linejoin="round"/>
<path d="M21.3333 21.3334V17.3334C21.3333 16.6261 21.0524 15.9478 20.5523 15.4477C20.0522 14.9476 19.3739 14.6667 18.6667 14.6667C17.9594 14.6667 17.2811 14.9476 16.781 15.4477C16.281 15.9478 16 16.6261 16 17.3334" stroke="#F5D877" stroke-width="2" stroke-linecap="round" stroke-linejoin="round"/>
</g>
<defs>
<clipPath id="clip0_1_288">
<rect width="32" height="32" fill="white"/>
</clipPath>
</defs>
</svg>
