<svg width="1138" height="366" viewBox="0 0 1138 366" fill="none" xmlns="http://www.w3.org/2000/svg">
<path d="M4.444 23.82V39H1.694V23.82H4.444ZM10.78 29.826V31.982H4.268V29.826H10.78ZM13.288 23.82V39H10.538V23.82H13.288ZM22.8726 23.82V39H20.1226V23.82H22.8726ZM27.5806 23.82V26.064H15.4146V23.82H27.5806ZM44.7356 23.82C45.425 23.82 45.777 24.172 45.7916 24.876L46.3856 39H43.7676L43.2396 25.998H42.8216L39.9836 36.184C39.8516 36.7853 39.4776 37.086 38.8616 37.086H36.9256C36.295 37.086 35.9063 36.7853 35.7596 36.184L32.9216 25.998H32.5036L32.0196 39H29.4016L29.9956 24.876C30.025 24.172 30.377 23.82 31.0516 23.82H33.8016C34.3883 23.82 34.755 24.1207 34.9016 24.722L37.2336 33.038C37.3363 33.39 37.417 33.742 37.4756 34.094C37.549 34.446 37.6296 34.798 37.7176 35.15H38.0476C38.1356 34.798 38.2163 34.446 38.2896 34.094C38.363 33.742 38.4436 33.3827 38.5316 33.016L40.8636 24.722C40.9956 24.1207 41.3696 23.82 41.9856 23.82H44.7356ZM52.1807 23.82V35.48C52.1807 35.9053 52.2907 36.228 52.5107 36.448C52.7454 36.6533 53.0754 36.756 53.5007 36.756H58.8687L59.0007 38.846C58.0034 38.934 56.9621 38.9853 55.8767 39C54.8061 39.0293 53.7427 39.044 52.6867 39.044C51.5721 39.044 50.7507 38.758 50.2227 38.186C49.7094 37.614 49.4527 36.888 49.4527 36.008V23.82H52.1807ZM71.7312 32.51V34.314H65.1092V32.51H71.7312ZM88.4393 23.82L88.3293 25.976H81.9933L81.7953 29.386L83.7753 29.584C84.7286 29.6573 85.528 29.8113 86.1733 30.046C86.8333 30.2807 87.3613 30.596 87.7573 30.992C88.168 31.388 88.4613 31.872 88.6373 32.444C88.8133 33.0013 88.9013 33.654 88.9013 34.402C88.9013 35.0327 88.828 35.6413 88.6813 36.228C88.5346 36.8147 88.2706 37.3353 87.8893 37.79C87.5226 38.2447 87.002 38.604 86.3273 38.868C85.6673 39.132 84.8093 39.264 83.7533 39.264C83.0933 39.264 82.338 39.22 81.4873 39.132C80.6513 39.0587 79.7933 38.934 78.9133 38.758L79.1773 36.624C79.8813 36.712 80.578 36.7927 81.2673 36.866C81.9566 36.9247 82.558 36.954 83.0713 36.954C83.922 36.954 84.5673 36.8587 85.0073 36.668C85.4473 36.4627 85.748 36.1693 85.9093 35.788C86.0706 35.392 86.1586 34.908 86.1733 34.336C86.2026 33.764 86.1366 33.3093 85.9753 32.972C85.8286 32.6347 85.5866 32.378 85.2493 32.202C84.9266 32.026 84.4866 31.9013 83.9293 31.828C83.372 31.7547 82.6973 31.696 81.9053 31.652L80.3873 31.498C80.1086 31.454 79.8813 31.3367 79.7053 31.146C79.544 30.9553 79.4706 30.7207 79.4853 30.442L79.8593 23.82H88.4393ZM7.392 84.556C8.08133 84.556 8.668 84.578 9.152 84.622C9.636 84.6513 10.0833 84.7027 10.494 84.776C10.9047 84.8347 11.33 84.9227 11.77 85.04L11.528 87.086C11.0733 87.0567 10.648 87.0347 10.252 87.02C9.856 86.9907 9.43067 86.9687 8.976 86.954C8.536 86.9393 8.008 86.932 7.392 86.932C6.54133 86.932 5.874 87.1007 5.39 87.438C4.906 87.7753 4.56133 88.34 4.356 89.132C4.16533 89.924 4.07 91.0167 4.07 92.41C4.07 93.8033 4.16533 94.896 4.356 95.688C4.56133 96.48 4.906 97.0447 5.39 97.382C5.874 97.7193 6.54133 97.888 7.392 97.888C8.37467 97.888 9.196 97.8733 9.856 97.844C10.5307 97.8 11.1907 97.7413 11.836 97.668L12.078 99.692C11.418 99.8973 10.736 100.044 10.032 100.132C9.328 100.22 8.448 100.264 7.392 100.264C5.86667 100.264 4.64933 100.015 3.74 99.516C2.83067 99.0027 2.17067 98.174 1.76 97.03C1.364 95.886 1.166 94.346 1.166 92.41C1.166 90.474 1.364 88.934 1.76 87.79C2.17067 86.646 2.83067 85.8247 3.74 85.326C4.64933 84.8127 5.86667 84.556 7.392 84.556ZM19.1197 84.534C19.8677 84.5487 20.6524 84.5927 21.4737 84.666C22.3097 84.7393 23.1237 84.8787 23.9157 85.084L23.7397 86.954C23.1091 86.9393 22.3757 86.9247 21.5397 86.91C20.7184 86.8807 19.9264 86.866 19.1637 86.866C18.6944 86.866 18.2911 86.8807 17.9537 86.91C17.6311 86.9393 17.3671 87.0127 17.1617 87.13C16.9564 87.2473 16.8024 87.4307 16.6997 87.68C16.6117 87.9147 16.5677 88.2447 16.5677 88.67C16.5677 89.33 16.6997 89.7993 16.9637 90.078C17.2424 90.3567 17.6897 90.5767 18.3057 90.738L21.2977 91.618C22.5004 91.9847 23.3291 92.52 23.7837 93.224C24.2384 93.9133 24.4657 94.8373 24.4657 95.996C24.4657 96.8613 24.3631 97.5727 24.1577 98.13C23.9524 98.6873 23.6371 99.12 23.2117 99.428C22.7864 99.736 22.2291 99.956 21.5397 100.088C20.8504 100.22 20.0217 100.286 19.0537 100.286C18.5551 100.286 17.8657 100.257 16.9857 100.198C16.1204 100.139 15.1304 99.9927 14.0157 99.758L14.1917 97.778C15.0571 97.8073 15.7831 97.8367 16.3697 97.866C16.9564 97.8807 17.4624 97.888 17.8877 97.888C18.3131 97.888 18.7091 97.888 19.0757 97.888C19.7504 97.888 20.2784 97.844 20.6597 97.756C21.0411 97.668 21.3051 97.4847 21.4517 97.206C21.6131 96.9273 21.6937 96.524 21.6937 95.996C21.6937 95.5413 21.6351 95.1893 21.5177 94.94C21.4151 94.676 21.2391 94.4707 20.9897 94.324C20.7404 94.1773 20.4177 94.0527 20.0217 93.95L16.9197 93.004C15.7757 92.652 14.9691 92.1313 14.4997 91.442C14.0451 90.7527 13.8177 89.8287 13.8177 88.67C13.8177 87.8047 13.9204 87.1007 14.1257 86.558C14.3311 86.0007 14.6464 85.5827 15.0717 85.304C15.4971 85.0107 16.0397 84.8127 16.6997 84.71C17.3744 84.5927 18.1811 84.534 19.1197 84.534ZM31.774 84.534C32.522 84.5487 33.3067 84.5927 34.128 84.666C34.964 84.7393 35.778 84.8787 36.57 85.084L36.394 86.954C35.7633 86.9393 35.03 86.9247 34.194 86.91C33.3727 86.8807 32.5807 86.866 31.818 86.866C31.3487 86.866 30.9453 86.8807 30.608 86.91C30.2853 86.9393 30.0213 87.0127 29.816 87.13C29.6107 87.2473 29.4567 87.4307 29.354 87.68C29.266 87.9147 29.222 88.2447 29.222 88.67C29.222 89.33 29.354 89.7993 29.618 90.078C29.8967 90.3567 30.344 90.5767 30.96 90.738L33.952 91.618C35.1547 91.9847 35.9833 92.52 36.438 93.224C36.8927 93.9133 37.12 94.8373 37.12 95.996C37.12 96.8613 37.0173 97.5727 36.812 98.13C36.6067 98.6873 36.2913 99.12 35.866 99.428C35.4407 99.736 34.8833 99.956 34.194 100.088C33.5047 100.22 32.676 100.286 31.708 100.286C31.2093 100.286 30.52 100.257 29.64 100.198C28.7747 100.139 27.7847 99.9927 26.67 99.758L26.846 97.778C27.7113 97.8073 28.4373 97.8367 29.024 97.866C29.6107 97.8807 30.1167 97.888 30.542 97.888C30.9673 97.888 31.3633 97.888 31.73 97.888C32.4047 97.888 32.9327 97.844 33.314 97.756C33.6953 97.668 33.9593 97.4847 34.106 97.206C34.2673 96.9273 34.348 96.524 34.348 95.996C34.348 95.5413 34.2893 95.1893 34.172 94.94C34.0693 94.676 33.8933 94.4707 33.644 94.324C33.3947 94.1773 33.072 94.0527 32.676 93.95L29.574 93.004C28.43 92.652 27.6233 92.1313 27.154 91.442C26.6993 90.7527 26.472 89.8287 26.472 88.67C26.472 87.8047 26.5747 87.1007 26.78 86.558C26.9853 86.0007 27.3007 85.5827 27.726 85.304C28.1513 85.0107 28.694 84.8127 29.354 84.71C30.0287 84.5927 30.8353 84.534 31.774 84.534ZM50.9128 93.51V95.314H44.2908V93.51H50.9128ZM62.979 84.534C64.1523 84.534 65.091 84.644 65.795 84.864C66.499 85.0693 67.0123 85.4287 67.335 85.942C67.6723 86.4553 67.841 87.1593 67.841 88.054C67.841 88.7287 67.775 89.3373 67.643 89.88C67.511 90.408 67.2763 90.848 66.939 91.2C66.6163 91.5373 66.147 91.7647 65.531 91.882V91.97C66.5576 92.1313 67.2616 92.5347 67.643 93.18C68.0243 93.8253 68.2223 94.6907 68.237 95.776C68.2516 96.8173 68.0976 97.6753 67.775 98.35C67.4523 99.01 66.917 99.5013 66.169 99.824C65.4356 100.132 64.4383 100.286 63.177 100.286C62.341 100.286 61.4903 100.242 60.625 100.154C59.7596 100.081 58.9236 99.9927 58.117 99.89L58.249 97.822C58.8063 97.8513 59.3123 97.8807 59.767 97.91C60.2363 97.9393 60.6836 97.9613 61.109 97.976C61.549 97.9907 61.9963 97.998 62.451 97.998C63.2136 97.998 63.815 97.9247 64.255 97.778C64.7096 97.6313 65.0323 97.3673 65.223 96.986C65.4283 96.6047 65.531 96.0913 65.531 95.446C65.531 94.9327 65.4576 94.5 65.311 94.148C65.179 93.7813 64.9223 93.5027 64.541 93.312C64.1743 93.1067 63.6243 93.0113 62.891 93.026H60.053V91.112H62.891C63.419 91.112 63.837 91.046 64.145 90.914C64.4676 90.782 64.7023 90.6133 64.849 90.408C65.0103 90.188 65.113 89.9387 65.157 89.66C65.2156 89.3667 65.245 89.066 65.245 88.758C65.2303 88.2007 65.1423 87.7827 64.981 87.504C64.8196 87.2253 64.541 87.042 64.145 86.954C63.7636 86.8513 63.2283 86.8 62.539 86.8C61.791 86.8 61.0723 86.8147 60.383 86.844C59.6936 86.8587 59.085 86.888 58.557 86.932L58.403 84.93C59.195 84.798 59.965 84.7027 60.713 84.644C61.4756 84.5707 62.231 84.534 62.979 84.534ZM7.26 145.622C8.59467 145.622 9.64333 145.769 10.406 146.062C11.1687 146.341 11.7113 146.832 12.034 147.536C12.3713 148.225 12.54 149.208 12.54 150.484C12.54 151.76 12.3787 152.75 12.056 153.454C11.748 154.158 11.2273 154.649 10.494 154.928C9.77533 155.207 8.81467 155.346 7.612 155.346C6.952 155.346 6.314 155.324 5.698 155.28C5.09667 155.236 4.532 155.177 4.004 155.104C3.49067 155.031 3.05067 154.957 2.684 154.884C2.31733 154.796 2.06067 154.723 1.914 154.664L1.98 153.19C2.816 153.19 3.674 153.19 4.554 153.19C5.44867 153.19 6.336 153.19 7.216 153.19C7.86133 153.175 8.36733 153.095 8.734 152.948C9.11533 152.801 9.37933 152.537 9.526 152.156C9.68733 151.76 9.768 151.203 9.768 150.484C9.768 149.765 9.68733 149.215 9.526 148.834C9.37933 148.438 9.11533 148.167 8.734 148.02C8.36733 147.859 7.86133 147.778 7.216 147.778C5.92533 147.778 4.818 147.785 3.894 147.8C2.97 147.815 2.33933 147.837 2.002 147.866L1.694 145.82C2.28067 145.761 2.83067 145.717 3.344 145.688C3.872 145.659 4.43667 145.644 5.038 145.644C5.654 145.629 6.39467 145.622 7.26 145.622ZM4.444 145.82V161H1.694V145.82H4.444ZM25.1988 150.198L21.1508 161.33C20.9601 161.843 20.7181 162.349 20.4248 162.848C20.1461 163.361 19.7868 163.823 19.3468 164.234C18.9068 164.645 18.3861 164.967 17.7848 165.202C17.1834 165.437 16.4868 165.525 15.6948 165.466L15.4748 163.882C16.3548 163.633 17.0368 163.295 17.5208 162.87C18.0194 162.445 18.4081 161.902 18.6868 161.242L19.2808 159.834C19.4128 159.511 19.5374 159.145 19.6548 158.734C19.7868 158.309 19.8968 157.942 19.9848 157.634L22.3388 150.198H25.1988ZM16.4868 150.198L18.8848 157.634C18.9581 157.883 19.0241 158.14 19.0828 158.404C19.1414 158.653 19.1928 158.903 19.2368 159.152H19.7868L18.9508 161H18.2468C18.0414 161 17.8581 160.941 17.6968 160.824C17.5354 160.707 17.4254 160.545 17.3668 160.34L13.6488 150.198H16.4868ZM30.5405 147.118V157.744C30.5405 158.199 30.6358 158.521 30.8265 158.712C31.0318 158.903 31.3765 158.998 31.8605 158.998H33.3565L33.6425 160.868C33.3931 160.941 33.0925 161.007 32.7405 161.066C32.3885 161.125 32.0438 161.161 31.7065 161.176C31.3691 161.205 31.0831 161.22 30.8485 161.22C29.9098 161.22 29.1765 160.971 28.6485 160.472C28.1351 159.959 27.8785 159.225 27.8785 158.272V147.118H30.5405ZM33.7525 150.198V152.046H25.9645V150.308L28.0765 150.198H33.7525ZM42.8266 149.934C44.8359 149.934 45.8406 150.924 45.8406 152.904V161H43.1566V153.718C43.1566 153.131 43.0539 152.728 42.8486 152.508C42.6579 152.288 42.3206 152.178 41.8366 152.178C41.2939 152.178 40.7366 152.295 40.1646 152.53C39.5926 152.765 38.9033 153.117 38.0966 153.586L37.8986 152.046C38.7199 151.371 39.5413 150.851 40.3626 150.484C41.1986 150.117 42.0199 149.934 42.8266 149.934ZM38.3826 145.6L38.4046 149.56C38.4046 150.103 38.3753 150.616 38.3166 151.1C38.2726 151.569 38.2066 151.973 38.1186 152.31L38.3826 152.618V161H35.7206V145.6H38.3826ZM53.6456 149.934C54.9656 149.934 56.0143 150.117 56.7916 150.484C57.5836 150.851 58.1483 151.452 58.4856 152.288C58.8376 153.124 59.0136 154.231 59.0136 155.61C59.0136 156.989 58.8376 158.096 58.4856 158.932C58.1483 159.753 57.5836 160.355 56.7916 160.736C56.0143 161.103 54.9656 161.286 53.6456 161.286C52.355 161.286 51.3136 161.103 50.5216 160.736C49.7443 160.355 49.1796 159.753 48.8276 158.932C48.4756 158.096 48.2996 156.989 48.2996 155.61C48.2996 154.231 48.4756 153.124 48.8276 152.288C49.1796 151.452 49.7443 150.851 50.5216 150.484C51.3136 150.117 52.355 149.934 53.6456 149.934ZM53.6456 151.958C53.0003 151.958 52.487 152.068 52.1056 152.288C51.739 152.493 51.475 152.86 51.3136 153.388C51.1523 153.916 51.0716 154.657 51.0716 155.61C51.0716 156.563 51.1523 157.304 51.3136 157.832C51.475 158.36 51.739 158.727 52.1056 158.932C52.487 159.137 53.0003 159.24 53.6456 159.24C54.3056 159.24 54.8263 159.137 55.2076 158.932C55.589 158.727 55.853 158.36 55.9996 157.832C56.161 157.304 56.2416 156.563 56.2416 155.61C56.2416 154.657 56.161 153.916 55.9996 153.388C55.853 152.86 55.589 152.493 55.2076 152.288C54.8263 152.068 54.3056 151.958 53.6456 151.958ZM68.6293 149.934C70.6387 149.934 71.6433 150.924 71.6433 152.904V161H68.9813V153.718C68.9813 153.131 68.8787 152.728 68.6733 152.508C68.468 152.288 68.1233 152.178 67.6393 152.178C67.0967 152.178 66.5393 152.303 65.9673 152.552C65.3953 152.787 64.706 153.131 63.8993 153.586L63.7893 151.98C64.5813 151.32 65.388 150.814 66.2093 150.462C67.0307 150.11 67.8373 149.934 68.6293 149.934ZM63.7013 150.198L63.9653 152.31L64.1853 152.618V161H61.5233V150.198H63.7013ZM6.248 206.82V218.92C6.248 220.005 5.962 220.827 5.39 221.384C4.83267 221.941 4.03333 222.22 2.992 222.22C2.772 222.22 2.50067 222.205 2.178 222.176C1.85533 222.161 1.54733 222.125 1.254 222.066C0.960667 222.007 0.718667 221.941 0.528 221.868L0.836 220.02H1.914C2.98467 220.02 3.52 219.551 3.52 218.612V206.82H6.248ZM14.8148 210.934C15.6801 210.934 16.4061 211.051 16.9928 211.286C17.5941 211.506 18.0488 211.887 18.3568 212.43C18.6648 212.973 18.8188 213.721 18.8188 214.674V222H16.7068L16.3328 219.668L16.1348 219.36V214.652C16.1348 214.08 16.0028 213.669 15.7388 213.42C15.4748 213.156 14.9688 213.024 14.2208 213.024C13.6634 213.024 12.9594 213.046 12.1088 213.09C11.2728 213.134 10.4294 213.193 9.57877 213.266L9.33677 211.44C9.8501 211.337 10.4294 211.249 11.0748 211.176C11.7201 211.103 12.3728 211.044 13.0328 211C13.6928 210.956 14.2868 210.934 14.8148 210.934ZM17.6748 215.356L17.6528 217.006H12.7028C12.2628 217.021 11.9474 217.138 11.7568 217.358C11.5661 217.578 11.4708 217.879 11.4708 218.26V218.854C11.4708 219.294 11.5881 219.631 11.8228 219.866C12.0574 220.086 12.4241 220.196 12.9228 220.196C13.3188 220.196 13.7588 220.115 14.2428 219.954C14.7268 219.793 15.2034 219.558 15.6728 219.25C16.1568 218.942 16.5894 218.575 16.9708 218.15V219.536C16.8241 219.756 16.6114 220.02 16.3328 220.328C16.0541 220.621 15.7094 220.915 15.2988 221.208C14.9028 221.501 14.4408 221.743 13.9128 221.934C13.3994 222.125 12.8274 222.22 12.1968 222.22C11.5514 222.22 10.9721 222.11 10.4588 221.89C9.94543 221.655 9.5421 221.318 9.24877 220.878C8.95543 220.423 8.80877 219.866 8.80877 219.206V218.062C8.80877 217.211 9.08743 216.551 9.64477 216.082C10.2168 215.598 10.9941 215.356 11.9768 215.356H17.6748ZM32.0098 211.198L28.2918 221.362C28.2185 221.553 28.1012 221.707 27.9398 221.824C27.7932 221.941 27.6098 222 27.3898 222H25.0578C24.8525 222 24.6692 221.941 24.5078 221.824C24.3465 221.707 24.2292 221.553 24.1558 221.362L20.4378 211.198H23.2758L25.5418 218.282C25.6445 218.605 25.7398 218.935 25.8278 219.272C25.9158 219.595 25.9965 219.91 26.0698 220.218H26.3558C26.4585 219.895 26.5538 219.573 26.6418 219.25C26.7445 218.927 26.8398 218.605 26.9278 218.282L29.1938 211.198H32.0098ZM39.0921 210.934C39.9574 210.934 40.6834 211.051 41.2701 211.286C41.8714 211.506 42.3261 211.887 42.6341 212.43C42.9421 212.973 43.0961 213.721 43.0961 214.674V222H40.9841L40.6101 219.668L40.4121 219.36V214.652C40.4121 214.08 40.2801 213.669 40.0161 213.42C39.7521 213.156 39.2461 213.024 38.4981 213.024C37.9408 213.024 37.2368 213.046 36.3861 213.09C35.5501 213.134 34.7068 213.193 33.8561 213.266L33.6141 211.44C34.1274 211.337 34.7068 211.249 35.3521 211.176C35.9974 211.103 36.6501 211.044 37.3101 211C37.9701 210.956 38.5641 210.934 39.0921 210.934ZM41.9521 215.356L41.9301 217.006H36.9801C36.5401 217.021 36.2248 217.138 36.0341 217.358C35.8434 217.578 35.7481 217.879 35.7481 218.26V218.854C35.7481 219.294 35.8654 219.631 36.1001 219.866C36.3348 220.086 36.7014 220.196 37.2001 220.196C37.5961 220.196 38.0361 220.115 38.5201 219.954C39.0041 219.793 39.4808 219.558 39.9501 219.25C40.4341 218.942 40.8668 218.575 41.2481 218.15V219.536C41.1014 219.756 40.8888 220.02 40.6101 220.328C40.3314 220.621 39.9868 220.915 39.5761 221.208C39.1801 221.501 38.7181 221.743 38.1901 221.934C37.6768 222.125 37.1048 222.22 36.4741 222.22C35.8288 222.22 35.2494 222.11 34.7361 221.89C34.2228 221.655 33.8194 221.318 33.5261 220.878C33.2328 220.423 33.0861 219.866 33.0861 219.206V218.062C33.0861 217.211 33.3648 216.551 33.9221 216.082C34.4941 215.598 35.2714 215.356 36.2541 215.356H41.9521ZM7.898 267.82V283H5.148V267.82H7.898ZM12.606 267.82V270.064H0.44V267.82H12.606ZM17.0347 271.934C18.78 271.934 20.034 272.242 20.7967 272.858C21.5594 273.459 21.948 274.354 21.9627 275.542C21.9774 276.525 21.7427 277.273 21.2587 277.786C20.7894 278.285 20.0047 278.534 18.9047 278.534H12.7447V276.884H18.1787C18.6774 276.884 18.9927 276.752 19.1247 276.488C19.2714 276.224 19.3447 275.901 19.3447 275.52C19.33 274.919 19.154 274.501 18.8167 274.266C18.494 274.031 17.9367 273.914 17.1447 273.914C16.4554 273.914 15.92 274.009 15.5387 274.2C15.1574 274.391 14.886 274.735 14.7247 275.234C14.578 275.733 14.5047 276.451 14.5047 277.39C14.5047 278.387 14.6 279.157 14.7907 279.7C14.9814 280.243 15.2967 280.617 15.7367 280.822C16.1767 281.013 16.7634 281.108 17.4967 281.108C18.0394 281.108 18.6627 281.086 19.3667 281.042C20.0854 280.998 20.7747 280.939 21.4347 280.866L21.6987 282.56C21.3027 282.721 20.848 282.853 20.3347 282.956C19.8214 283.059 19.286 283.132 18.7287 283.176C18.186 283.235 17.6727 283.264 17.1887 283.264C15.8687 283.264 14.8054 283.073 13.9987 282.692C13.2067 282.296 12.6274 281.68 12.2607 280.844C11.9087 280.008 11.7327 278.93 11.7327 277.61C11.7327 276.187 11.9087 275.065 12.2607 274.244C12.6274 273.408 13.1994 272.814 13.9767 272.462C14.7687 272.11 15.788 271.934 17.0347 271.934ZM26.4234 272.198L26.7754 274.31L27.0174 274.618V283H24.3554V272.198H26.4234ZM31.7034 271.934L31.4394 274.398H30.6694C30.0974 274.398 29.518 274.493 28.9314 274.684C28.3447 274.875 27.6114 275.161 26.7314 275.542L26.5554 273.98C27.318 273.335 28.0954 272.836 28.8874 272.484C29.6794 272.117 30.442 271.934 31.1754 271.934H31.7034ZM46.9717 271.934C47.9251 271.934 48.6511 272.191 49.1497 272.704C49.6631 273.203 49.9197 273.936 49.9197 274.904V283H47.2797V275.718C47.2651 275.175 47.1551 274.787 46.9497 274.552C46.7444 274.303 46.3851 274.178 45.8717 274.178C45.5637 274.178 45.2631 274.229 44.9697 274.332C44.6911 274.42 44.3757 274.567 44.0237 274.772C43.6717 274.977 43.2464 275.249 42.7477 275.586L42.5937 273.98C43.3417 273.291 44.0604 272.777 44.7497 272.44C45.4537 272.103 46.1944 271.934 46.9717 271.934ZM35.6417 272.198L35.9057 274.31L36.1697 274.618V283H33.5077V272.198H35.6417ZM40.0857 271.934C41.0244 271.934 41.7431 272.183 42.2417 272.682C42.7404 273.181 42.9897 273.921 42.9897 274.904V283H40.4377V275.718C40.4377 275.146 40.3204 274.75 40.0857 274.53C39.8511 274.295 39.4991 274.178 39.0297 274.178C38.7364 274.178 38.4431 274.222 38.1497 274.31C37.8564 274.398 37.5337 274.545 37.1817 274.75C36.8297 274.955 36.3897 275.234 35.8617 275.586L35.7077 273.98C36.4411 273.291 37.1597 272.777 37.8637 272.44C38.5677 272.103 39.3084 271.934 40.0857 271.934ZM55.5717 272.198V283H52.9317V272.198H55.5717ZM54.8457 267.512C55.3737 267.512 55.6377 267.776 55.6377 268.304V269.536C55.6377 270.064 55.3737 270.328 54.8457 270.328H53.6577C53.1297 270.328 52.8657 270.064 52.8657 269.536V268.304C52.8657 267.776 53.1297 267.512 53.6577 267.512H54.8457ZM65.7504 271.934C67.7598 271.934 68.7644 272.924 68.7644 274.904V283H66.1024V275.718C66.1024 275.131 65.9998 274.728 65.7944 274.508C65.5891 274.288 65.2444 274.178 64.7604 274.178C64.2178 274.178 63.6604 274.303 63.0884 274.552C62.5164 274.787 61.8271 275.131 61.0204 275.586L60.9104 273.98C61.7024 273.32 62.5091 272.814 63.3304 272.462C64.1518 272.11 64.9584 271.934 65.7504 271.934ZM60.8224 272.198L61.0864 274.31L61.3064 274.618V283H58.6444V272.198H60.8224ZM77.1195 271.934C77.9848 271.934 78.7108 272.051 79.2975 272.286C79.8988 272.506 80.3535 272.887 80.6615 273.43C80.9695 273.973 81.1235 274.721 81.1235 275.674V283H79.0115L78.6375 280.668L78.4395 280.36V275.652C78.4395 275.08 78.3075 274.669 78.0435 274.42C77.7795 274.156 77.2735 274.024 76.5255 274.024C75.9681 274.024 75.2641 274.046 74.4135 274.09C73.5775 274.134 72.7341 274.193 71.8835 274.266L71.6415 272.44C72.1548 272.337 72.7341 272.249 73.3795 272.176C74.0248 272.103 74.6775 272.044 75.3375 272C75.9975 271.956 76.5915 271.934 77.1195 271.934ZM79.9795 276.356L79.9575 278.006H75.0075C74.5675 278.021 74.2521 278.138 74.0615 278.358C73.8708 278.578 73.7755 278.879 73.7755 279.26V279.854C73.7755 280.294 73.8928 280.631 74.1275 280.866C74.3621 281.086 74.7288 281.196 75.2275 281.196C75.6235 281.196 76.0635 281.115 76.5475 280.954C77.0315 280.793 77.5081 280.558 77.9775 280.25C78.4615 279.942 78.8941 279.575 79.2755 279.15V280.536C79.1288 280.756 78.9161 281.02 78.6375 281.328C78.3588 281.621 78.0141 281.915 77.6035 282.208C77.2075 282.501 76.7455 282.743 76.2175 282.934C75.7041 283.125 75.1321 283.22 74.5015 283.22C73.8561 283.22 73.2768 283.11 72.7635 282.89C72.2501 282.655 71.8468 282.318 71.5535 281.878C71.2601 281.423 71.1135 280.866 71.1135 280.206V279.062C71.1135 278.211 71.3921 277.551 71.9495 277.082C72.5215 276.598 73.2988 276.356 74.2815 276.356H79.9795ZM86.7015 267.6L86.6795 279.744C86.6795 280.155 86.7968 280.47 87.0315 280.69C87.2662 280.895 87.6035 280.998 88.0435 280.998H88.9895L89.2975 282.868C89.1362 282.941 88.9088 283.007 88.6155 283.066C88.3368 283.125 88.0435 283.161 87.7355 283.176C87.4422 283.205 87.1855 283.22 86.9655 283.22C86.0708 283.22 85.3595 282.978 84.8315 282.494C84.3035 282.01 84.0395 281.313 84.0395 280.404V267.6H86.7015ZM6.248 328.82V340.92C6.248 342.005 5.962 342.827 5.39 343.384C4.83267 343.941 4.03333 344.22 2.992 344.22C2.772 344.22 2.50067 344.205 2.178 344.176C1.85533 344.161 1.54733 344.125 1.254 344.066C0.960667 344.007 0.718667 343.941 0.528 343.868L0.836 342.02H1.914C2.98467 342.02 3.52 341.551 3.52 340.612V328.82H6.248ZM14.8148 332.934C15.6801 332.934 16.4061 333.051 16.9928 333.286C17.5941 333.506 18.0488 333.887 18.3568 334.43C18.6648 334.973 18.8188 335.721 18.8188 336.674V344H16.7068L16.3328 341.668L16.1348 341.36V336.652C16.1348 336.08 16.0028 335.669 15.7388 335.42C15.4748 335.156 14.9688 335.024 14.2208 335.024C13.6634 335.024 12.9594 335.046 12.1088 335.09C11.2728 335.134 10.4294 335.193 9.57877 335.266L9.33677 333.44C9.8501 333.337 10.4294 333.249 11.0748 333.176C11.7201 333.103 12.3728 333.044 13.0328 333C13.6928 332.956 14.2868 332.934 14.8148 332.934ZM17.6748 337.356L17.6528 339.006H12.7028C12.2628 339.021 11.9474 339.138 11.7568 339.358C11.5661 339.578 11.4708 339.879 11.4708 340.26V340.854C11.4708 341.294 11.5881 341.631 11.8228 341.866C12.0574 342.086 12.4241 342.196 12.9228 342.196C13.3188 342.196 13.7588 342.115 14.2428 341.954C14.7268 341.793 15.2034 341.558 15.6728 341.25C16.1568 340.942 16.5894 340.575 16.9708 340.15V341.536C16.8241 341.756 16.6114 342.02 16.3328 342.328C16.0541 342.621 15.7094 342.915 15.2988 343.208C14.9028 343.501 14.4408 343.743 13.9128 343.934C13.3994 344.125 12.8274 344.22 12.1968 344.22C11.5514 344.22 10.9721 344.11 10.4588 343.89C9.94543 343.655 9.5421 343.318 9.24877 342.878C8.95543 342.423 8.80877 341.866 8.80877 341.206V340.062C8.80877 339.211 9.08743 338.551 9.64477 338.082C10.2168 337.598 10.9941 337.356 11.9768 337.356H17.6748ZM32.0098 333.198L28.2918 343.362C28.2185 343.553 28.1012 343.707 27.9398 343.824C27.7932 343.941 27.6098 344 27.3898 344H25.0578C24.8525 344 24.6692 343.941 24.5078 343.824C24.3465 343.707 24.2292 343.553 24.1558 343.362L20.4378 333.198H23.2758L25.5418 340.282C25.6445 340.605 25.7398 340.935 25.8278 341.272C25.9158 341.595 25.9965 341.91 26.0698 342.218H26.3558C26.4585 341.895 26.5538 341.573 26.6418 341.25C26.7445 340.927 26.8398 340.605 26.9278 340.282L29.1938 333.198H32.0098ZM39.0921 332.934C39.9574 332.934 40.6834 333.051 41.2701 333.286C41.8714 333.506 42.3261 333.887 42.6341 334.43C42.9421 334.973 43.0961 335.721 43.0961 336.674V344H40.9841L40.6101 341.668L40.4121 341.36V336.652C40.4121 336.08 40.2801 335.669 40.0161 335.42C39.7521 335.156 39.2461 335.024 38.4981 335.024C37.9408 335.024 37.2368 335.046 36.3861 335.09C35.5501 335.134 34.7068 335.193 33.8561 335.266L33.6141 333.44C34.1274 333.337 34.7068 333.249 35.3521 333.176C35.9974 333.103 36.6501 333.044 37.3101 333C37.9701 332.956 38.5641 332.934 39.0921 332.934ZM41.9521 337.356L41.9301 339.006H36.9801C36.5401 339.021 36.2248 339.138 36.0341 339.358C35.8434 339.578 35.7481 339.879 35.7481 340.26V340.854C35.7481 341.294 35.8654 341.631 36.1001 341.866C36.3348 342.086 36.7014 342.196 37.2001 342.196C37.5961 342.196 38.0361 342.115 38.5201 341.954C39.0041 341.793 39.4808 341.558 39.9501 341.25C40.4341 340.942 40.8668 340.575 41.2481 340.15V341.536C41.1014 341.756 40.8888 342.02 40.6101 342.328C40.3314 342.621 39.9868 342.915 39.5761 343.208C39.1801 343.501 38.7181 343.743 38.1901 343.934C37.6768 344.125 37.1048 344.22 36.4741 344.22C35.8288 344.22 35.2494 344.11 34.7361 343.89C34.2228 343.655 33.8194 343.318 33.5261 342.878C33.2328 342.423 33.0861 341.866 33.0861 341.206V340.062C33.0861 339.211 33.3648 338.551 33.9221 338.082C34.4941 337.598 35.2714 337.356 36.2541 337.356H41.9521ZM50.8307 328.534C51.5787 328.549 52.3633 328.593 53.1847 328.666C54.0207 328.739 54.8347 328.879 55.6267 329.084L55.4507 330.954C54.82 330.939 54.0867 330.925 53.2507 330.91C52.4293 330.881 51.6373 330.866 50.8747 330.866C50.4053 330.866 50.002 330.881 49.6647 330.91C49.342 330.939 49.078 331.013 48.8727 331.13C48.6673 331.247 48.5133 331.431 48.4107 331.68C48.3227 331.915 48.2787 332.245 48.2787 332.67C48.2787 333.33 48.4107 333.799 48.6747 334.078C48.9533 334.357 49.4007 334.577 50.0167 334.738L53.0087 335.618C54.2113 335.985 55.04 336.52 55.4947 337.224C55.9493 337.913 56.1767 338.837 56.1767 339.996C56.1767 340.861 56.074 341.573 55.8687 342.13C55.6633 342.687 55.348 343.12 54.9227 343.428C54.4973 343.736 53.94 343.956 53.2507 344.088C52.5613 344.22 51.7327 344.286 50.7647 344.286C50.266 344.286 49.5767 344.257 48.6967 344.198C47.8313 344.139 46.8413 343.993 45.7267 343.758L45.9027 341.778C46.768 341.807 47.494 341.837 48.0807 341.866C48.6673 341.881 49.1733 341.888 49.5987 341.888C50.024 341.888 50.42 341.888 50.7867 341.888C51.4613 341.888 51.9893 341.844 52.3707 341.756C52.752 341.668 53.016 341.485 53.1627 341.206C53.324 340.927 53.4047 340.524 53.4047 339.996C53.4047 339.541 53.346 339.189 53.2287 338.94C53.126 338.676 52.95 338.471 52.7007 338.324C52.4513 338.177 52.1287 338.053 51.7327 337.95L48.6307 337.004C47.4867 336.652 46.68 336.131 46.2107 335.442C45.756 334.753 45.5287 333.829 45.5287 332.67C45.5287 331.805 45.6313 331.101 45.8367 330.558C46.042 330.001 46.3573 329.583 46.7827 329.304C47.208 329.011 47.7507 328.813 48.4107 328.71C49.0853 328.593 49.892 328.534 50.8307 328.534ZM63.463 332.934C63.8296 332.934 64.233 332.949 64.673 332.978C65.113 333.007 65.5603 333.066 66.015 333.154C66.4696 333.242 66.8803 333.367 67.247 333.528L66.939 335.2C66.3963 335.171 65.8536 335.149 65.311 335.134C64.783 335.119 64.321 335.112 63.925 335.112C63.177 335.112 62.583 335.215 62.143 335.42C61.7176 335.611 61.4096 335.963 61.219 336.476C61.0283 336.975 60.933 337.679 60.933 338.588C60.933 339.497 61.0283 340.209 61.219 340.722C61.4096 341.221 61.7176 341.573 62.143 341.778C62.583 341.983 63.177 342.086 63.925 342.086C64.145 342.086 64.431 342.079 64.783 342.064C65.1496 342.049 65.5383 342.027 65.949 341.998C66.3743 341.969 66.785 341.932 67.181 341.888L67.445 343.604C66.873 343.839 66.235 344.007 65.531 344.11C64.827 344.213 64.1303 344.264 63.441 344.264C62.1503 344.264 61.1163 344.081 60.339 343.714C59.5616 343.347 58.997 342.753 58.645 341.932C58.3076 341.096 58.139 339.981 58.139 338.588C58.139 337.195 58.315 336.087 58.667 335.266C59.019 334.43 59.5836 333.836 60.361 333.484C61.1383 333.117 62.1723 332.934 63.463 332.934ZM71.691 333.198L72.043 335.31L72.285 335.618V344H69.623V333.198H71.691ZM76.971 332.934L76.707 335.398H75.937C75.365 335.398 74.7856 335.493 74.199 335.684C73.6123 335.875 72.879 336.161 71.999 336.542L71.823 334.98C72.5856 334.335 73.363 333.836 74.155 333.484C74.947 333.117 75.7096 332.934 76.443 332.934H76.971ZM81.5033 333.198V344H78.8633V333.198H81.5033ZM80.7773 328.512C81.3053 328.512 81.5693 328.776 81.5693 329.304V330.536C81.5693 331.064 81.3053 331.328 80.7773 331.328H79.5893C79.0613 331.328 78.7973 331.064 78.7973 330.536V329.304C78.7973 328.776 79.0613 328.512 79.5893 328.512H80.7773ZM91.2861 332.934C92.6207 332.934 93.5814 333.425 94.1681 334.408C94.7547 335.391 95.0481 336.813 95.0481 338.676C95.0481 340.099 94.8941 341.221 94.5861 342.042C94.2927 342.849 93.8454 343.428 93.2441 343.78C92.6427 344.117 91.8801 344.286 90.9561 344.286C90.2227 344.286 89.5041 344.183 88.8001 343.978C88.1107 343.758 87.4727 343.421 86.8861 342.966L87.0621 341.646C87.6341 341.807 88.1474 341.947 88.6021 342.064C89.0567 342.181 89.5554 342.24 90.0981 342.24C90.6407 342.24 91.0661 342.152 91.3741 341.976C91.6967 341.785 91.9314 341.433 92.0781 340.92C92.2247 340.407 92.2981 339.666 92.2981 338.698C92.2981 337.745 92.2321 337.004 92.1001 336.476C91.9681 335.948 91.7481 335.581 91.4401 335.376C91.1467 335.156 90.7581 335.046 90.2741 335.046C89.7461 335.046 89.2474 335.163 88.7781 335.398C88.3087 335.618 87.7661 335.948 87.1501 336.388L86.8421 334.98C87.1794 334.584 87.5827 334.232 88.0521 333.924C88.5361 333.616 89.0567 333.374 89.6141 333.198C90.1714 333.022 90.7287 332.934 91.2861 332.934ZM86.7321 333.198L86.9961 335.288L87.2381 335.596V342.57L87.1281 342.834C87.1721 343.259 87.2014 343.685 87.2161 344.11C87.2307 344.55 87.2381 344.997 87.2381 345.452V348.29H84.5761V333.198H86.7321ZM101.138 330.118V340.744C101.138 341.199 101.233 341.521 101.424 341.712C101.629 341.903 101.974 341.998 102.458 341.998H103.954L104.24 343.868C103.991 343.941 103.69 344.007 103.338 344.066C102.986 344.125 102.641 344.161 102.304 344.176C101.967 344.205 101.681 344.22 101.446 344.22C100.507 344.22 99.7741 343.971 99.2461 343.472C98.7328 342.959 98.4761 342.225 98.4761 341.272V330.118H101.138ZM104.35 333.198V335.046H96.5621V333.308L98.6741 333.198H104.35Z" fill="white"/>
<path d="M1096.8 23.578C1097.84 23.578 1098.69 23.6587 1099.35 23.82C1100.01 23.9813 1100.52 24.2233 1100.89 24.546C1101.27 24.8687 1101.54 25.2867 1101.68 25.8C1101.83 26.2987 1101.9 26.9 1101.9 27.604C1101.9 28.22 1101.82 28.7847 1101.66 29.298C1101.51 29.7967 1101.28 30.2073 1100.96 30.53C1100.63 30.838 1100.21 31.0213 1099.68 31.08V31.168C1100.35 31.2267 1100.88 31.4393 1101.24 31.806C1101.62 32.158 1101.89 32.6273 1102.03 33.214C1102.18 33.8007 1102.25 34.468 1102.25 35.216C1102.25 36.1693 1102.1 36.9467 1101.79 37.548C1101.5 38.1347 1100.96 38.5673 1100.16 38.846C1099.39 39.11 1098.26 39.242 1096.8 39.242C1095.35 39.242 1094.22 39.11 1093.43 38.846C1092.64 38.5673 1092.09 38.1347 1091.78 37.548C1091.47 36.9467 1091.32 36.1693 1091.32 35.216C1091.32 34.468 1091.39 33.8007 1091.54 33.214C1091.69 32.6273 1091.95 32.158 1092.33 31.806C1092.71 31.4393 1093.23 31.2267 1093.89 31.168V31.08C1093.37 31.0213 1092.93 30.838 1092.6 30.53C1092.27 30.2073 1092.04 29.7967 1091.89 29.298C1091.75 28.7847 1091.67 28.22 1091.67 27.604C1091.67 26.9 1091.75 26.2987 1091.89 25.8C1092.04 25.2867 1092.3 24.8687 1092.68 24.546C1093.07 24.2233 1093.59 23.9813 1094.25 23.82C1094.91 23.6587 1095.76 23.578 1096.8 23.578ZM1096.84 32.092C1096.24 32.092 1095.75 32.136 1095.37 32.224C1094.99 32.2973 1094.69 32.4293 1094.47 32.62C1094.26 32.796 1094.11 33.0527 1094.03 33.39C1093.94 33.7273 1093.89 34.16 1093.89 34.688C1093.89 35.2893 1093.97 35.7733 1094.14 36.14C1094.3 36.492 1094.59 36.7413 1095.02 36.888C1095.44 37.02 1096.04 37.086 1096.82 37.086C1097.58 37.086 1098.17 37.02 1098.58 36.888C1098.99 36.7413 1099.27 36.492 1099.42 36.14C1099.56 35.7733 1099.64 35.2893 1099.64 34.688C1099.64 34.1453 1099.59 33.7053 1099.5 33.368C1099.43 33.0307 1099.29 32.774 1099.09 32.598C1098.88 32.4073 1098.59 32.2753 1098.23 32.202C1097.88 32.1287 1097.41 32.092 1096.84 32.092ZM1096.82 25.58C1096.1 25.58 1095.55 25.6533 1095.17 25.8C1094.79 25.932 1094.52 26.1667 1094.38 26.504C1094.23 26.8413 1094.16 27.3107 1094.16 27.912C1094.16 28.5133 1094.23 28.9827 1094.38 29.32C1094.52 29.6427 1094.79 29.8627 1095.17 29.98C1095.57 30.0973 1096.12 30.156 1096.84 30.156C1097.58 30.156 1098.13 30.0973 1098.49 29.98C1098.86 29.848 1099.1 29.6207 1099.22 29.298C1099.35 28.9753 1099.42 28.5133 1099.42 27.912C1099.42 27.3107 1099.35 26.8413 1099.22 26.504C1099.09 26.1667 1098.83 25.932 1098.45 25.8C1098.08 25.6533 1097.54 25.58 1096.82 25.58ZM1110.35 23.534C1111.75 23.534 1112.85 23.798 1113.65 24.326C1114.48 24.8393 1115.06 25.6753 1115.41 26.834C1115.78 27.9927 1115.96 29.518 1115.96 31.41C1115.96 33.302 1115.78 34.8273 1115.41 35.986C1115.06 37.1447 1114.48 37.988 1113.65 38.516C1112.85 39.0293 1111.75 39.286 1110.35 39.286C1108.98 39.286 1107.88 39.0293 1107.05 38.516C1106.25 37.988 1105.66 37.1447 1105.29 35.986C1104.94 34.8273 1104.77 33.302 1104.77 31.41C1104.77 29.518 1104.94 27.9927 1105.29 26.834C1105.66 25.6753 1106.25 24.8393 1107.05 24.326C1107.88 23.798 1108.98 23.534 1110.35 23.534ZM1110.35 25.756C1109.8 25.756 1109.34 25.8513 1108.97 26.042C1108.6 26.2327 1108.31 26.5407 1108.09 26.966C1107.87 27.3913 1107.71 27.9707 1107.63 28.704C1107.54 29.4227 1107.49 30.3247 1107.49 31.41C1107.49 32.4807 1107.54 33.3827 1107.63 34.116C1107.71 34.8493 1107.87 35.4287 1108.09 35.854C1108.31 36.2793 1108.6 36.5873 1108.97 36.778C1109.34 36.9687 1109.8 37.064 1110.35 37.064C1110.9 37.064 1111.36 36.9687 1111.74 36.778C1112.12 36.5873 1112.42 36.2793 1112.64 35.854C1112.86 35.4287 1113.02 34.8493 1113.1 34.116C1113.19 33.3827 1113.24 32.4807 1113.24 31.41C1113.24 30.3247 1113.19 29.4227 1113.1 28.704C1113.02 27.9707 1112.86 27.3913 1112.64 26.966C1112.42 26.5407 1112.12 26.2327 1111.74 26.042C1111.36 25.8513 1110.9 25.756 1110.35 25.756ZM1121.71 23.534C1122.62 23.534 1123.35 23.6807 1123.89 23.974C1124.43 24.2673 1124.81 24.744 1125.03 25.404C1125.27 26.0493 1125.38 26.9293 1125.38 28.044C1125.38 29.144 1125.27 30.024 1125.03 30.684C1124.81 31.344 1124.43 31.8207 1123.89 32.114C1123.35 32.4073 1122.62 32.554 1121.71 32.554C1120.82 32.554 1120.1 32.4073 1119.55 32.114C1119.01 31.8207 1118.62 31.344 1118.39 30.684C1118.17 30.024 1118.06 29.144 1118.06 28.044C1118.06 26.9293 1118.17 26.0493 1118.39 25.404C1118.62 24.744 1119.01 24.2673 1119.55 23.974C1120.1 23.6807 1120.82 23.534 1121.71 23.534ZM1121.71 25.074C1121.28 25.074 1120.95 25.162 1120.7 25.338C1120.46 25.4993 1120.29 25.8 1120.19 26.24C1120.09 26.6653 1120.04 27.2667 1120.04 28.044C1120.04 28.8213 1120.09 29.43 1120.19 29.87C1120.29 30.2953 1120.46 30.596 1120.7 30.772C1120.95 30.9333 1121.28 31.014 1121.71 31.014C1122.15 31.014 1122.49 30.9333 1122.72 30.772C1122.97 30.596 1123.14 30.2953 1123.23 29.87C1123.33 29.43 1123.38 28.8213 1123.38 28.044C1123.38 27.2667 1123.33 26.6653 1123.23 26.24C1123.14 25.8 1122.97 25.4993 1122.72 25.338C1122.49 25.162 1122.15 25.074 1121.71 25.074ZM1132.64 23.82L1123.23 39H1121.49L1130.91 23.82H1132.64ZM1132.47 30.222C1133.38 30.222 1134.1 30.3687 1134.62 30.662C1135.17 30.9553 1135.56 31.432 1135.79 32.092C1136.02 32.7373 1136.14 33.61 1136.14 34.71C1136.14 35.81 1136.02 36.6973 1135.79 37.372C1135.56 38.032 1135.17 38.5087 1134.62 38.802C1134.1 39.0807 1133.38 39.22 1132.47 39.22C1131.57 39.22 1130.85 39.0807 1130.31 38.802C1129.77 38.5087 1129.38 38.032 1129.15 37.372C1128.93 36.6973 1128.82 35.81 1128.82 34.71C1128.82 33.61 1128.93 32.7373 1129.15 32.092C1129.38 31.432 1129.77 30.9553 1130.31 30.662C1130.85 30.3687 1131.57 30.222 1132.47 30.222ZM1132.45 31.74C1132.02 31.74 1131.68 31.828 1131.43 32.004C1131.2 32.1653 1131.03 32.466 1130.93 32.906C1130.84 33.3313 1130.8 33.9327 1130.8 34.71C1130.8 35.4873 1130.84 36.096 1130.93 36.536C1131.03 36.976 1131.2 37.284 1131.43 37.46C1131.68 37.6213 1132.02 37.702 1132.45 37.702C1132.89 37.702 1133.22 37.6213 1133.46 37.46C1133.71 37.284 1133.88 36.976 1133.99 36.536C1134.09 36.096 1134.14 35.4873 1134.14 34.71C1134.14 33.9327 1134.09 33.3313 1133.99 32.906C1133.88 32.466 1133.71 32.1653 1133.46 32.004C1133.22 31.828 1132.89 31.74 1132.45 31.74ZM1099.61 84.82C1099.95 84.82 1100.23 84.8933 1100.45 85.04C1100.67 85.172 1100.81 85.3553 1100.87 85.59C1100.94 85.8247 1100.93 86.1033 1100.82 86.426L1096.14 100H1093.43L1097.48 88.384C1097.55 88.164 1097.63 87.944 1097.72 87.724C1097.81 87.504 1097.92 87.2913 1098.05 87.086H1090.81L1090.7 84.82H1099.61ZM1111.97 84.82L1111.86 86.976H1105.52L1105.32 90.386L1107.3 90.584C1108.26 90.6573 1109.06 90.8113 1109.7 91.046C1110.36 91.2807 1110.89 91.596 1111.28 91.992C1111.7 92.388 1111.99 92.872 1112.16 93.444C1112.34 94.0013 1112.43 94.654 1112.43 95.402C1112.43 96.0327 1112.36 96.6413 1112.21 97.228C1112.06 97.8147 1111.8 98.3353 1111.42 98.79C1111.05 99.2447 1110.53 99.604 1109.85 99.868C1109.19 100.132 1108.34 100.264 1107.28 100.264C1106.62 100.264 1105.87 100.22 1105.01 100.132C1104.18 100.059 1103.32 99.934 1102.44 99.758L1102.7 97.624C1103.41 97.712 1104.11 97.7927 1104.79 97.866C1105.48 97.9247 1106.09 97.954 1106.6 97.954C1107.45 97.954 1108.09 97.8587 1108.53 97.668C1108.97 97.4627 1109.28 97.1693 1109.44 96.788C1109.6 96.392 1109.69 95.908 1109.7 95.336C1109.73 94.764 1109.66 94.3093 1109.5 93.972C1109.36 93.6347 1109.11 93.378 1108.78 93.202C1108.45 93.026 1108.01 92.9013 1107.46 92.828C1106.9 92.7547 1106.22 92.696 1105.43 92.652L1103.91 92.498C1103.64 92.454 1103.41 92.3367 1103.23 92.146C1103.07 91.9553 1103 91.7207 1103.01 91.442L1103.39 84.82H1111.97ZM1117.99 84.534C1118.9 84.534 1119.63 84.6807 1120.17 84.974C1120.71 85.2673 1121.09 85.744 1121.31 86.404C1121.55 87.0493 1121.67 87.9293 1121.67 89.044C1121.67 90.144 1121.55 91.024 1121.31 91.684C1121.09 92.344 1120.71 92.8207 1120.17 93.114C1119.63 93.4073 1118.9 93.554 1117.99 93.554C1117.1 93.554 1116.38 93.4073 1115.84 93.114C1115.29 92.8207 1114.91 92.344 1114.67 91.684C1114.45 91.024 1114.34 90.144 1114.34 89.044C1114.34 87.9293 1114.45 87.0493 1114.67 86.404C1114.91 85.744 1115.29 85.2673 1115.84 84.974C1116.38 84.6807 1117.1 84.534 1117.99 84.534ZM1117.99 86.074C1117.57 86.074 1117.23 86.162 1116.98 86.338C1116.75 86.4993 1116.58 86.8 1116.47 87.24C1116.37 87.6653 1116.32 88.2667 1116.32 89.044C1116.32 89.8213 1116.37 90.43 1116.47 90.87C1116.58 91.2953 1116.75 91.596 1116.98 91.772C1117.23 91.9333 1117.57 92.014 1117.99 92.014C1118.43 92.014 1118.77 91.9333 1119 91.772C1119.25 91.596 1119.42 91.2953 1119.51 90.87C1119.61 90.43 1119.66 89.8213 1119.66 89.044C1119.66 88.2667 1119.61 87.6653 1119.51 87.24C1119.42 86.8 1119.25 86.4993 1119 86.338C1118.77 86.162 1118.43 86.074 1117.99 86.074ZM1128.93 84.82L1119.51 100H1117.77L1127.19 84.82H1128.93ZM1128.75 91.222C1129.66 91.222 1130.38 91.3687 1130.91 91.662C1131.45 91.9553 1131.84 92.432 1132.07 93.092C1132.31 93.7373 1132.42 94.61 1132.42 95.71C1132.42 96.81 1132.31 97.6973 1132.07 98.372C1131.84 99.032 1131.45 99.5087 1130.91 99.802C1130.38 100.081 1129.66 100.22 1128.75 100.22C1127.86 100.22 1127.14 100.081 1126.59 99.802C1126.05 99.5087 1125.66 99.032 1125.43 98.372C1125.21 97.6973 1125.1 96.81 1125.1 95.71C1125.1 94.61 1125.21 93.7373 1125.43 93.092C1125.66 92.432 1126.05 91.9553 1126.59 91.662C1127.14 91.3687 1127.86 91.222 1128.75 91.222ZM1128.73 92.74C1128.3 92.74 1127.97 92.828 1127.72 93.004C1127.48 93.1653 1127.31 93.466 1127.21 93.906C1127.12 94.3313 1127.08 94.9327 1127.08 95.71C1127.08 96.4873 1127.12 97.096 1127.21 97.536C1127.31 97.976 1127.48 98.284 1127.72 98.46C1127.97 98.6213 1128.3 98.702 1128.73 98.702C1129.17 98.702 1129.51 98.6213 1129.74 98.46C1129.99 98.284 1130.17 97.976 1130.27 97.536C1130.37 97.096 1130.42 96.4873 1130.42 95.71C1130.42 94.9327 1130.37 94.3313 1130.27 93.906C1130.17 93.466 1129.99 93.1653 1129.74 93.004C1129.51 92.828 1129.17 92.74 1128.73 92.74ZM1097.44 145.556C1097.77 145.556 1098.25 145.571 1098.87 145.6C1099.48 145.629 1100.13 145.739 1100.8 145.93L1100.63 147.756C1100.27 147.727 1099.94 147.712 1099.64 147.712C1099.34 147.697 1099.03 147.69 1098.69 147.69C1098.35 147.69 1097.93 147.69 1097.44 147.69C1096.75 147.69 1096.17 147.763 1095.72 147.91C1095.27 148.057 1094.91 148.343 1094.64 148.768C1094.38 149.193 1094.19 149.817 1094.09 150.638C1093.99 151.445 1093.94 152.508 1093.94 153.828C1093.94 154.884 1093.96 155.757 1094 156.446C1094.06 157.135 1094.18 157.678 1094.36 158.074C1094.53 158.455 1094.8 158.727 1095.17 158.888C1095.55 159.049 1096.06 159.13 1096.69 159.13C1097.45 159.13 1098.01 159.013 1098.36 158.778C1098.71 158.543 1098.94 158.191 1099.04 157.722C1099.14 157.253 1099.2 156.673 1099.2 155.984C1099.2 155.251 1099.13 154.679 1099 154.268C1098.87 153.843 1098.62 153.542 1098.27 153.366C1097.92 153.175 1097.41 153.08 1096.75 153.08C1096.31 153.08 1095.9 153.139 1095.52 153.256C1095.16 153.359 1094.77 153.542 1094.36 153.806C1093.96 154.07 1093.48 154.444 1092.9 154.928L1092.82 153.784C1093.31 153.08 1093.78 152.53 1094.22 152.134C1094.66 151.738 1095.14 151.459 1095.65 151.298C1096.18 151.137 1096.81 151.056 1097.52 151.056C1098.62 151.056 1099.48 151.217 1100.1 151.54C1100.71 151.863 1101.15 152.383 1101.4 153.102C1101.66 153.806 1101.79 154.752 1101.79 155.94C1101.79 156.791 1101.73 157.546 1101.59 158.206C1101.46 158.866 1101.21 159.423 1100.85 159.878C1100.48 160.333 1099.96 160.677 1099.28 160.912C1098.62 161.147 1097.75 161.264 1096.67 161.264C1095.58 161.264 1094.68 161.147 1093.96 160.912C1093.26 160.677 1092.71 160.274 1092.31 159.702C1091.93 159.13 1091.66 158.36 1091.5 157.392C1091.33 156.409 1091.25 155.185 1091.25 153.718C1091.25 151.943 1091.38 150.521 1091.63 149.45C1091.89 148.365 1092.27 147.543 1092.77 146.986C1093.29 146.429 1093.93 146.055 1094.71 145.864C1095.49 145.659 1096.39 145.556 1097.44 145.556ZM1109.6 145.534C1111 145.534 1112.1 145.798 1112.9 146.326C1113.72 146.839 1114.31 147.675 1114.66 148.834C1115.03 149.993 1115.21 151.518 1115.21 153.41C1115.21 155.302 1115.03 156.827 1114.66 157.986C1114.31 159.145 1113.72 159.988 1112.9 160.516C1112.1 161.029 1111 161.286 1109.6 161.286C1108.22 161.286 1107.12 161.029 1106.3 160.516C1105.5 159.988 1104.91 159.145 1104.54 157.986C1104.19 156.827 1104.01 155.302 1104.01 153.41C1104.01 151.518 1104.19 149.993 1104.54 148.834C1104.91 147.675 1105.5 146.839 1106.3 146.326C1107.12 145.798 1108.22 145.534 1109.6 145.534ZM1109.6 147.756C1109.05 147.756 1108.58 147.851 1108.22 148.042C1107.85 148.233 1107.56 148.541 1107.34 148.966C1107.12 149.391 1106.96 149.971 1106.87 150.704C1106.79 151.423 1106.74 152.325 1106.74 153.41C1106.74 154.481 1106.79 155.383 1106.87 156.116C1106.96 156.849 1107.12 157.429 1107.34 157.854C1107.56 158.279 1107.85 158.587 1108.22 158.778C1108.58 158.969 1109.05 159.064 1109.6 159.064C1110.15 159.064 1110.61 158.969 1110.99 158.778C1111.37 158.587 1111.67 158.279 1111.89 157.854C1112.11 157.429 1112.26 156.849 1112.35 156.116C1112.44 155.383 1112.48 154.481 1112.48 153.41C1112.48 152.325 1112.44 151.423 1112.35 150.704C1112.26 149.971 1112.11 149.391 1111.89 148.966C1111.67 148.541 1111.37 148.233 1110.99 148.042C1110.61 147.851 1110.15 147.756 1109.6 147.756ZM1120.96 145.534C1121.87 145.534 1122.59 145.681 1123.14 145.974C1123.68 146.267 1124.06 146.744 1124.28 147.404C1124.51 148.049 1124.63 148.929 1124.63 150.044C1124.63 151.144 1124.51 152.024 1124.28 152.684C1124.06 153.344 1123.68 153.821 1123.14 154.114C1122.59 154.407 1121.87 154.554 1120.96 154.554C1120.06 154.554 1119.34 154.407 1118.8 154.114C1118.26 153.821 1117.87 153.344 1117.64 152.684C1117.42 152.024 1117.31 151.144 1117.31 150.044C1117.31 148.929 1117.42 148.049 1117.64 147.404C1117.87 146.744 1118.26 146.267 1118.8 145.974C1119.34 145.681 1120.06 145.534 1120.96 145.534ZM1120.96 147.074C1120.53 147.074 1120.2 147.162 1119.95 147.338C1119.71 147.499 1119.54 147.8 1119.44 148.24C1119.34 148.665 1119.29 149.267 1119.29 150.044C1119.29 150.821 1119.34 151.43 1119.44 151.87C1119.54 152.295 1119.71 152.596 1119.95 152.772C1120.2 152.933 1120.53 153.014 1120.96 153.014C1121.4 153.014 1121.74 152.933 1121.97 152.772C1122.22 152.596 1122.39 152.295 1122.48 151.87C1122.58 151.43 1122.63 150.821 1122.63 150.044C1122.63 149.267 1122.58 148.665 1122.48 148.24C1122.39 147.8 1122.22 147.499 1121.97 147.338C1121.74 147.162 1121.4 147.074 1120.96 147.074ZM1131.89 145.82L1122.48 161H1120.74L1130.15 145.82H1131.89ZM1131.72 152.222C1132.63 152.222 1133.34 152.369 1133.87 152.662C1134.41 152.955 1134.8 153.432 1135.04 154.092C1135.27 154.737 1135.39 155.61 1135.39 156.71C1135.39 157.81 1135.27 158.697 1135.04 159.372C1134.8 160.032 1134.41 160.509 1133.87 160.802C1133.34 161.081 1132.63 161.22 1131.72 161.22C1130.82 161.22 1130.1 161.081 1129.56 160.802C1129.02 160.509 1128.63 160.032 1128.39 159.372C1128.17 158.697 1128.06 157.81 1128.06 156.71C1128.06 155.61 1128.17 154.737 1128.39 154.092C1128.63 153.432 1129.02 152.955 1129.56 152.662C1130.1 152.369 1130.82 152.222 1131.72 152.222ZM1131.69 153.74C1131.27 153.74 1130.93 153.828 1130.68 154.004C1130.45 154.165 1130.28 154.466 1130.18 154.906C1130.09 155.331 1130.04 155.933 1130.04 156.71C1130.04 157.487 1130.09 158.096 1130.18 158.536C1130.28 158.976 1130.45 159.284 1130.68 159.46C1130.93 159.621 1131.27 159.702 1131.69 159.702C1132.13 159.702 1132.47 159.621 1132.71 159.46C1132.96 159.284 1133.13 158.976 1133.23 158.536C1133.34 158.096 1133.39 157.487 1133.39 156.71C1133.39 155.933 1133.34 155.331 1133.23 154.906C1133.13 154.466 1132.96 154.165 1132.71 154.004C1132.47 153.828 1132.13 153.74 1131.69 153.74ZM1100.49 206.82L1100.38 208.976H1094.05L1093.85 212.386L1095.83 212.584C1096.78 212.657 1097.58 212.811 1098.23 213.046C1098.89 213.281 1099.42 213.596 1099.81 213.992C1100.22 214.388 1100.52 214.872 1100.69 215.444C1100.87 216.001 1100.96 216.654 1100.96 217.402C1100.96 218.033 1100.88 218.641 1100.74 219.228C1100.59 219.815 1100.33 220.335 1099.94 220.79C1099.58 221.245 1099.06 221.604 1098.38 221.868C1097.72 222.132 1096.86 222.264 1095.81 222.264C1095.15 222.264 1094.39 222.22 1093.54 222.132C1092.71 222.059 1091.85 221.934 1090.97 221.758L1091.23 219.624C1091.94 219.712 1092.63 219.793 1093.32 219.866C1094.01 219.925 1094.61 219.954 1095.13 219.954C1095.98 219.954 1096.62 219.859 1097.06 219.668C1097.5 219.463 1097.8 219.169 1097.96 218.788C1098.13 218.392 1098.21 217.908 1098.23 217.336C1098.26 216.764 1098.19 216.309 1098.03 215.972C1097.88 215.635 1097.64 215.378 1097.3 215.202C1096.98 215.026 1096.54 214.901 1095.98 214.828C1095.43 214.755 1094.75 214.696 1093.96 214.652L1092.44 214.498C1092.16 214.454 1091.94 214.337 1091.76 214.146C1091.6 213.955 1091.53 213.721 1091.54 213.442L1091.91 206.82H1100.49ZM1108.79 206.534C1110.18 206.534 1111.28 206.798 1112.09 207.326C1112.91 207.839 1113.49 208.675 1113.85 209.834C1114.21 210.993 1114.4 212.518 1114.4 214.41C1114.4 216.302 1114.21 217.827 1113.85 218.986C1113.49 220.145 1112.91 220.988 1112.09 221.516C1111.28 222.029 1110.18 222.286 1108.79 222.286C1107.41 222.286 1106.31 222.029 1105.49 221.516C1104.68 220.988 1104.09 220.145 1103.73 218.986C1103.37 217.827 1103.2 216.302 1103.2 214.41C1103.2 212.518 1103.37 210.993 1103.73 209.834C1104.09 208.675 1104.68 207.839 1105.49 207.326C1106.31 206.798 1107.41 206.534 1108.79 206.534ZM1108.79 208.756C1108.23 208.756 1107.77 208.851 1107.4 209.042C1107.03 209.233 1106.74 209.541 1106.52 209.966C1106.3 210.391 1106.15 210.971 1106.06 211.704C1105.97 212.423 1105.93 213.325 1105.93 214.41C1105.93 215.481 1105.97 216.383 1106.06 217.116C1106.15 217.849 1106.3 218.429 1106.52 218.854C1106.74 219.279 1107.03 219.587 1107.4 219.778C1107.77 219.969 1108.23 220.064 1108.79 220.064C1109.33 220.064 1109.79 219.969 1110.17 219.778C1110.55 219.587 1110.85 219.279 1111.07 218.854C1111.29 218.429 1111.45 217.849 1111.54 217.116C1111.62 216.383 1111.67 215.481 1111.67 214.41C1111.67 213.325 1111.62 212.423 1111.54 211.704C1111.45 210.971 1111.29 210.391 1111.07 209.966C1110.85 209.541 1110.55 209.233 1110.17 209.042C1109.79 208.851 1109.33 208.756 1108.79 208.756ZM1120.14 206.534C1121.05 206.534 1121.78 206.681 1122.32 206.974C1122.86 207.267 1123.24 207.744 1123.46 208.404C1123.7 209.049 1123.82 209.929 1123.82 211.044C1123.82 212.144 1123.7 213.024 1123.46 213.684C1123.24 214.344 1122.86 214.821 1122.32 215.114C1121.78 215.407 1121.05 215.554 1120.14 215.554C1119.25 215.554 1118.53 215.407 1117.99 215.114C1117.44 214.821 1117.05 214.344 1116.82 213.684C1116.6 213.024 1116.49 212.144 1116.49 211.044C1116.49 209.929 1116.6 209.049 1116.82 208.404C1117.05 207.744 1117.44 207.267 1117.99 206.974C1118.53 206.681 1119.25 206.534 1120.14 206.534ZM1120.14 208.074C1119.72 208.074 1119.38 208.162 1119.13 208.338C1118.89 208.499 1118.73 208.8 1118.62 209.24C1118.52 209.665 1118.47 210.267 1118.47 211.044C1118.47 211.821 1118.52 212.43 1118.62 212.87C1118.73 213.295 1118.89 213.596 1119.13 213.772C1119.38 213.933 1119.72 214.014 1120.14 214.014C1120.58 214.014 1120.92 213.933 1121.15 213.772C1121.4 213.596 1121.57 213.295 1121.66 212.87C1121.76 212.43 1121.81 211.821 1121.81 211.044C1121.81 210.267 1121.76 209.665 1121.66 209.24C1121.57 208.8 1121.4 208.499 1121.15 208.338C1120.92 208.162 1120.58 208.074 1120.14 208.074ZM1131.08 206.82L1121.66 222H1119.92L1129.34 206.82H1131.08ZM1130.9 213.222C1131.81 213.222 1132.53 213.369 1133.06 213.662C1133.6 213.955 1133.99 214.432 1134.22 215.092C1134.46 215.737 1134.57 216.61 1134.57 217.71C1134.57 218.81 1134.46 219.697 1134.22 220.372C1133.99 221.032 1133.6 221.509 1133.06 221.802C1132.53 222.081 1131.81 222.22 1130.9 222.22C1130 222.22 1129.29 222.081 1128.74 221.802C1128.2 221.509 1127.81 221.032 1127.58 220.372C1127.36 219.697 1127.25 218.81 1127.25 217.71C1127.25 216.61 1127.36 215.737 1127.58 215.092C1127.81 214.432 1128.2 213.955 1128.74 213.662C1129.29 213.369 1130 213.222 1130.9 213.222ZM1130.88 214.74C1130.45 214.74 1130.11 214.828 1129.87 215.004C1129.63 215.165 1129.46 215.466 1129.36 215.906C1129.27 216.331 1129.23 216.933 1129.23 217.71C1129.23 218.487 1129.27 219.096 1129.36 219.536C1129.46 219.976 1129.63 220.284 1129.87 220.46C1130.11 220.621 1130.45 220.702 1130.88 220.702C1131.32 220.702 1131.65 220.621 1131.89 220.46C1132.14 220.284 1132.31 219.976 1132.42 219.536C1132.52 219.096 1132.57 218.487 1132.57 217.71C1132.57 216.933 1132.52 216.331 1132.42 215.906C1132.31 215.466 1132.14 215.165 1131.89 215.004C1131.65 214.828 1131.32 214.74 1130.88 214.74ZM1099.61 267.82C1099.95 267.82 1100.23 267.893 1100.45 268.04C1100.67 268.172 1100.81 268.355 1100.87 268.59C1100.94 268.825 1100.93 269.103 1100.82 269.426L1096.14 283H1093.43L1097.48 271.384C1097.55 271.164 1097.63 270.944 1097.72 270.724C1097.81 270.504 1097.92 270.291 1098.05 270.086H1090.81L1090.7 267.82H1099.61ZM1108.27 267.534C1109.66 267.534 1110.76 267.798 1111.57 268.326C1112.39 268.839 1112.98 269.675 1113.33 270.834C1113.7 271.993 1113.88 273.518 1113.88 275.41C1113.88 277.302 1113.7 278.827 1113.33 279.986C1112.98 281.145 1112.39 281.988 1111.57 282.516C1110.76 283.029 1109.66 283.286 1108.27 283.286C1106.89 283.286 1105.79 283.029 1104.97 282.516C1104.16 281.988 1103.58 281.145 1103.21 279.986C1102.86 278.827 1102.68 277.302 1102.68 275.41C1102.68 273.518 1102.86 271.993 1103.21 270.834C1103.58 269.675 1104.16 268.839 1104.97 268.326C1105.79 267.798 1106.89 267.534 1108.27 267.534ZM1108.27 269.756C1107.71 269.756 1107.25 269.851 1106.88 270.042C1106.52 270.233 1106.22 270.541 1106 270.966C1105.78 271.391 1105.63 271.971 1105.54 272.704C1105.45 273.423 1105.41 274.325 1105.41 275.41C1105.41 276.481 1105.45 277.383 1105.54 278.116C1105.63 278.849 1105.78 279.429 1106 279.854C1106.22 280.279 1106.52 280.587 1106.88 280.778C1107.25 280.969 1107.71 281.064 1108.27 281.064C1108.81 281.064 1109.28 280.969 1109.66 280.778C1110.04 280.587 1110.34 280.279 1110.56 279.854C1110.78 279.429 1110.93 278.849 1111.02 278.116C1111.11 277.383 1111.15 276.481 1111.15 275.41C1111.15 274.325 1111.11 273.423 1111.02 272.704C1110.93 271.971 1110.78 271.391 1110.56 270.966C1110.34 270.541 1110.04 270.233 1109.66 270.042C1109.28 269.851 1108.81 269.756 1108.27 269.756ZM1119.63 267.534C1120.54 267.534 1121.26 267.681 1121.8 267.974C1122.35 268.267 1122.73 268.744 1122.95 269.404C1123.18 270.049 1123.3 270.929 1123.3 272.044C1123.3 273.144 1123.18 274.024 1122.95 274.684C1122.73 275.344 1122.35 275.821 1121.8 276.114C1121.26 276.407 1120.54 276.554 1119.63 276.554C1118.73 276.554 1118.01 276.407 1117.47 276.114C1116.93 275.821 1116.54 275.344 1116.3 274.684C1116.08 274.024 1115.97 273.144 1115.97 272.044C1115.97 270.929 1116.08 270.049 1116.3 269.404C1116.54 268.744 1116.93 268.267 1117.47 267.974C1118.01 267.681 1118.73 267.534 1119.63 267.534ZM1119.63 269.074C1119.2 269.074 1118.86 269.162 1118.61 269.338C1118.38 269.499 1118.21 269.8 1118.11 270.24C1118.01 270.665 1117.95 271.267 1117.95 272.044C1117.95 272.821 1118.01 273.43 1118.11 273.87C1118.21 274.295 1118.38 274.596 1118.61 274.772C1118.86 274.933 1119.2 275.014 1119.63 275.014C1120.07 275.014 1120.4 274.933 1120.64 274.772C1120.89 274.596 1121.06 274.295 1121.14 273.87C1121.25 273.43 1121.3 272.821 1121.3 272.044C1121.3 271.267 1121.25 270.665 1121.14 270.24C1121.06 269.8 1120.89 269.499 1120.64 269.338C1120.4 269.162 1120.07 269.074 1119.63 269.074ZM1130.56 267.82L1121.14 283H1119.41L1128.82 267.82H1130.56ZM1130.38 274.222C1131.29 274.222 1132.01 274.369 1132.54 274.662C1133.08 274.955 1133.47 275.432 1133.71 276.092C1133.94 276.737 1134.06 277.61 1134.06 278.71C1134.06 279.81 1133.94 280.697 1133.71 281.372C1133.47 282.032 1133.08 282.509 1132.54 282.802C1132.01 283.081 1131.29 283.22 1130.38 283.22C1129.49 283.22 1128.77 283.081 1128.23 282.802C1127.69 282.509 1127.3 282.032 1127.06 281.372C1126.84 280.697 1126.73 279.81 1126.73 278.71C1126.73 277.61 1126.84 276.737 1127.06 276.092C1127.3 275.432 1127.69 274.955 1128.23 274.662C1128.77 274.369 1129.49 274.222 1130.38 274.222ZM1130.36 275.74C1129.94 275.74 1129.6 275.828 1129.35 276.004C1129.12 276.165 1128.95 276.466 1128.84 276.906C1128.76 277.331 1128.71 277.933 1128.71 278.71C1128.71 279.487 1128.76 280.096 1128.84 280.536C1128.95 280.976 1129.12 281.284 1129.35 281.46C1129.6 281.621 1129.94 281.702 1130.36 281.702C1130.8 281.702 1131.14 281.621 1131.37 281.46C1131.62 281.284 1131.8 280.976 1131.9 280.536C1132 280.096 1132.06 279.487 1132.06 278.71C1132.06 277.933 1132 277.331 1131.9 276.906C1131.8 276.466 1131.62 276.165 1131.37 276.004C1131.14 275.828 1130.8 275.74 1130.36 275.74ZM1097.44 328.556C1097.77 328.556 1098.25 328.571 1098.87 328.6C1099.48 328.629 1100.13 328.739 1100.8 328.93L1100.63 330.756C1100.27 330.727 1099.94 330.712 1099.64 330.712C1099.34 330.697 1099.03 330.69 1098.69 330.69C1098.35 330.69 1097.93 330.69 1097.44 330.69C1096.75 330.69 1096.17 330.763 1095.72 330.91C1095.27 331.057 1094.91 331.343 1094.64 331.768C1094.38 332.193 1094.19 332.817 1094.09 333.638C1093.99 334.445 1093.94 335.508 1093.94 336.828C1093.94 337.884 1093.96 338.757 1094 339.446C1094.06 340.135 1094.18 340.678 1094.36 341.074C1094.53 341.455 1094.8 341.727 1095.17 341.888C1095.55 342.049 1096.06 342.13 1096.69 342.13C1097.45 342.13 1098.01 342.013 1098.36 341.778C1098.71 341.543 1098.94 341.191 1099.04 340.722C1099.14 340.253 1099.2 339.673 1099.2 338.984C1099.2 338.251 1099.13 337.679 1099 337.268C1098.87 336.843 1098.62 336.542 1098.27 336.366C1097.92 336.175 1097.41 336.08 1096.75 336.08C1096.31 336.08 1095.9 336.139 1095.52 336.256C1095.16 336.359 1094.77 336.542 1094.36 336.806C1093.96 337.07 1093.48 337.444 1092.9 337.928L1092.82 336.784C1093.31 336.08 1093.78 335.53 1094.22 335.134C1094.66 334.738 1095.14 334.459 1095.65 334.298C1096.18 334.137 1096.81 334.056 1097.52 334.056C1098.62 334.056 1099.48 334.217 1100.1 334.54C1100.71 334.863 1101.15 335.383 1101.4 336.102C1101.66 336.806 1101.79 337.752 1101.79 338.94C1101.79 339.791 1101.73 340.546 1101.59 341.206C1101.46 341.866 1101.21 342.423 1100.85 342.878C1100.48 343.333 1099.96 343.677 1099.28 343.912C1098.62 344.147 1097.75 344.264 1096.67 344.264C1095.58 344.264 1094.68 344.147 1093.96 343.912C1093.26 343.677 1092.71 343.274 1092.31 342.702C1091.93 342.13 1091.66 341.36 1091.5 340.392C1091.33 339.409 1091.25 338.185 1091.25 336.718C1091.25 334.943 1091.38 333.521 1091.63 332.45C1091.89 331.365 1092.27 330.543 1092.77 329.986C1093.29 329.429 1093.93 329.055 1094.71 328.864C1095.49 328.659 1096.39 328.556 1097.44 328.556ZM1113.3 328.82L1113.19 330.976H1106.85L1106.65 334.386L1108.63 334.584C1109.59 334.657 1110.39 334.811 1111.03 335.046C1111.69 335.281 1112.22 335.596 1112.62 335.992C1113.03 336.388 1113.32 336.872 1113.5 337.444C1113.67 338.001 1113.76 338.654 1113.76 339.402C1113.76 340.033 1113.69 340.641 1113.54 341.228C1113.39 341.815 1113.13 342.335 1112.75 342.79C1112.38 343.245 1111.86 343.604 1111.19 343.868C1110.53 344.132 1109.67 344.264 1108.61 344.264C1107.95 344.264 1107.2 344.22 1106.35 344.132C1105.51 344.059 1104.65 343.934 1103.77 343.758L1104.04 341.624C1104.74 341.712 1105.44 341.793 1106.13 341.866C1106.82 341.925 1107.42 341.954 1107.93 341.954C1108.78 341.954 1109.43 341.859 1109.87 341.668C1110.31 341.463 1110.61 341.169 1110.77 340.788C1110.93 340.392 1111.02 339.908 1111.03 339.336C1111.06 338.764 1111 338.309 1110.83 337.972C1110.69 337.635 1110.45 337.378 1110.11 337.202C1109.79 337.026 1109.35 336.901 1108.79 336.828C1108.23 336.755 1107.56 336.696 1106.76 336.652L1105.25 336.498C1104.97 336.454 1104.74 336.337 1104.56 336.146C1104.4 335.955 1104.33 335.721 1104.34 335.442L1104.72 328.82H1113.3ZM1119.32 328.534C1120.23 328.534 1120.96 328.681 1121.5 328.974C1122.05 329.267 1122.43 329.744 1122.65 330.404C1122.88 331.049 1123 331.929 1123 333.044C1123 334.144 1122.88 335.024 1122.65 335.684C1122.43 336.344 1122.05 336.821 1121.5 337.114C1120.96 337.407 1120.23 337.554 1119.32 337.554C1118.43 337.554 1117.71 337.407 1117.17 337.114C1116.63 336.821 1116.24 336.344 1116 335.684C1115.78 335.024 1115.67 334.144 1115.67 333.044C1115.67 331.929 1115.78 331.049 1116 330.404C1116.24 329.744 1116.63 329.267 1117.17 328.974C1117.71 328.681 1118.43 328.534 1119.32 328.534ZM1119.32 330.074C1118.9 330.074 1118.56 330.162 1118.31 330.338C1118.08 330.499 1117.91 330.8 1117.81 331.24C1117.7 331.665 1117.65 332.267 1117.65 333.044C1117.65 333.821 1117.7 334.43 1117.81 334.87C1117.91 335.295 1118.08 335.596 1118.31 335.772C1118.56 335.933 1118.9 336.014 1119.32 336.014C1119.76 336.014 1120.1 335.933 1120.34 335.772C1120.59 335.596 1120.75 335.295 1120.84 334.87C1120.95 334.43 1121 333.821 1121 333.044C1121 332.267 1120.95 331.665 1120.84 331.24C1120.75 330.8 1120.59 330.499 1120.34 330.338C1120.1 330.162 1119.76 330.074 1119.32 330.074ZM1130.26 328.82L1120.84 344H1119.1L1128.52 328.82H1130.26ZM1130.08 335.222C1130.99 335.222 1131.71 335.369 1132.24 335.662C1132.78 335.955 1133.17 336.432 1133.4 337.092C1133.64 337.737 1133.76 338.61 1133.76 339.71C1133.76 340.81 1133.64 341.697 1133.4 342.372C1133.17 343.032 1132.78 343.509 1132.24 343.802C1131.71 344.081 1130.99 344.22 1130.08 344.22C1129.19 344.22 1128.47 344.081 1127.93 343.802C1127.38 343.509 1127 343.032 1126.76 342.372C1126.54 341.697 1126.43 340.81 1126.43 339.71C1126.43 338.61 1126.54 337.737 1126.76 337.092C1127 336.432 1127.38 335.955 1127.93 335.662C1128.47 335.369 1129.19 335.222 1130.08 335.222ZM1130.06 336.74C1129.64 336.74 1129.3 336.828 1129.05 337.004C1128.81 337.165 1128.65 337.466 1128.54 337.906C1128.45 338.331 1128.41 338.933 1128.41 339.71C1128.41 340.487 1128.45 341.096 1128.54 341.536C1128.65 341.976 1128.81 342.284 1129.05 342.46C1129.3 342.621 1129.64 342.702 1130.06 342.702C1130.5 342.702 1130.84 342.621 1131.07 342.46C1131.32 342.284 1131.5 341.976 1131.6 341.536C1131.7 341.096 1131.75 340.487 1131.75 339.71C1131.75 338.933 1131.7 338.331 1131.6 337.906C1131.5 337.466 1131.32 337.165 1131.07 337.004C1130.84 336.828 1130.5 336.74 1130.06 336.74Z" fill="white"/>
<rect x="221" y="23" width="835" height="20" rx="10" fill="#532F28"/>
<rect x="221" y="28" width="733" height="10" rx="5" fill="#F5D877"/>
<rect x="221" y="84" width="835" height="20" rx="10" fill="#532F28"/>
<rect x="221" y="89" width="678" height="10" rx="5" fill="#F5D877"/>
<rect x="221" y="145" width="835" height="20" rx="10" fill="#532F28"/>
<rect x="221" y="150" width="565" height="10" rx="5" fill="#F5D877"/>
<rect x="221" y="206" width="835" height="20" rx="10" fill="#532F28"/>
<rect x="221" y="211" width="456" height="10" rx="5" fill="#F5D877"/>
<rect x="221" y="267" width="835" height="20" rx="10" fill="#532F28"/>
<rect x="221" y="272" width="678" height="10" rx="5" fill="#F5D877"/>
<rect x="221" y="328" width="835" height="20" rx="10" fill="#532F28"/>
<rect x="221" y="333" width="604" height="10" rx="5" fill="#F5D877"/>
</svg>
